<svg id="outlined" xmlns="http://www.w3.org/2000/svg" viewBox="0 0 150 150"><defs><style>.cls-1{fill:none;stroke:#0064b4;stroke-miterlimit:10;stroke-width:4px;}</style></defs><polyline class="cls-1" points="38.87 44.21 18.33 44.21 18.33 18.25 131.66 18.25 131.66 44.21 113.42 44.21"/><path class="cls-1" d="M112.51,31.54v84.4a15.88,15.88,0,0,1-15.83,15.92H37.49V31.54"/><path class="cls-1" d="M92.88,84.54V69.71A7.33,7.33,0,0,0,85.6,62.4H82.94a7.33,7.33,0,0,0-7.26,7.31v6.43a9.45,9.45,0,1,1-18.9,0V61.3"/><line class="cls-1" x1="48.29" y1="73" x2="56.8" y2="73"/><line class="cls-1" x1="93.19" y1="73" x2="101.7" y2="73"/><line class="cls-1" x1="29.31" y1="31.7" x2="120.68" y2="31.7"/></svg>